<svg width="60" height="60" viewBox="0 0 60 60" fill="none" xmlns="http://www.w3.org/2000/svg">
<path fill-rule="evenodd" clip-rule="evenodd" d="M6 0C2.68629 0 0 2.68629 0 6V54C0 57.3137 2.68629 60 6 60H27.7252C29.0535 59.5187 29.9935 58.2323 29.9668 56.7358L29.661 37.3653C29.627 36.4478 28.8793 35.7001 27.9278 35.7001L23.8498 35.7681C23.2721 35.7681 22.8304 35.3263 22.8304 34.7486L22.7284 28.2918C22.7284 27.7141 23.1702 27.2723 23.7479 27.2723L27.8259 27.2043C28.7774 27.1704 29.525 26.4227 29.491 25.4712L29.3211 16.1258C29.2192 10.4846 33.705 5.86292 39.3462 5.76097L48.5216 5.625C49.0993 5.625 49.5411 6.06675 49.5411 6.64446L49.6771 14.8005C49.6771 15.3782 49.2353 15.82 48.6576 15.82L40.5016 15.9559C39.9239 15.9559 39.4821 16.4317 39.4821 16.9754L39.618 25.3013C39.652 26.2188 40.3997 26.9665 41.3512 26.9665L48.5896 26.8645C49.2353 26.8645 49.711 27.4422 49.6091 28.0539L48.4197 34.5447C48.3177 35.0205 47.9099 35.3603 47.4342 35.3943L41.4531 35.4962C40.5356 35.4962 39.788 36.2779 39.788 37.1954V56.8037C39.788 58.2691 40.7279 59.5256 42.0347 60H54C57.3137 60 60 57.3137 60 54V6C60 2.68629 57.3137 0 54 0H6Z" fill="#FF0068"/>
</svg>
