<svg width="60" height="60" viewBox="0 0 60 60" fill="none" xmlns="http://www.w3.org/2000/svg">
<path fill-rule="evenodd" clip-rule="evenodd" d="M0 6C0 2.68629 2.68629 0 6 0H54C57.3137 0 60 2.68629 60 6V54C60 57.3137 57.3137 60 54 60H6C2.68629 60 0 57.3137 0 54V6ZM50 9H21.4716V13.9991H19.1605V19.0375H16.8495V23.8791H14.5005V28.7601H12V33.7198H26.321V38.6795H23.8963V43.5998H21.5474V48.4021H19.1605V51H21.5474V48.4021H23.8963V45.9616H26.321V43.5998H28.67V41.0412H31.0568V38.6795H33.4437V36.1996H35.7169V33.7198H38.1037V31.2006H40.4905V28.7601H42.9153V26.2802H45.2263V23.8791H47.6132V21.3599H40.4905V19.0375H42.9153V16.4396H45.2263V13.9991H47.6132V11.5586H50V9ZM40.4905 13.9991H23.9721V19.0375H21.4716V23.8791H19.1605V28.7601H31.0189V33.7198H33.4437V31.2006H35.7169V28.7601H38.1037V26.2802H35.6963V31.1863H33.434V33.7084H31.0209V28.743H33.434V26.2603H33.4437V21.3599H35.7169V19.0375H38.1037V16.4396H40.4905V13.9991ZM31.0209 26.2603H33.434V23.8564H31.0209V26.2603ZM28.7209 26.2603V28.743H31.0209V26.2603H28.7209ZM26.3455 26.2603V23.8564H28.7209V26.2603H26.3455ZM24.0078 26.2603H26.3455V28.743H24.0078V26.2603ZM21.5193 26.2603V23.8564H24.0078V26.2603H21.5193ZM21.5193 26.2603H19.1816V28.743H21.5193V26.2603Z" fill="#FF0068"/>
</svg>
