<svg width="60" height="60" viewBox="0 0 60 60" fill="none" xmlns="http://www.w3.org/2000/svg">
<path fill-rule="evenodd" clip-rule="evenodd" d="M0 6C0 2.68629 2.68629 0 6 0H54C57.3137 0 60 2.68629 60 6V54C60 57.3137 57.3137 60 54 60H6C2.68629 60 0 57.3137 0 54V6ZM28.512 48.7496C38.0779 48.7496 45.8325 40.9949 45.8325 31.429C45.8325 21.8631 38.0779 14.1084 28.512 14.1084C18.9461 14.1084 11.1914 21.8631 11.1914 31.429C11.1914 40.9949 18.9461 48.7496 28.512 48.7496ZM28.6391 43.0196C34.9684 43.0196 40.0993 37.8887 40.0993 31.5594C40.0993 25.2301 34.9684 20.0992 28.6391 20.0992C22.3098 20.0992 17.1789 25.2301 17.1789 31.5594C17.1789 37.8887 22.3098 43.0196 28.6391 43.0196ZM47.8125 18.75C50.4013 18.75 52.5 16.6513 52.5 14.0625C52.5 11.4737 50.4013 9.375 47.8125 9.375C45.2237 9.375 43.125 11.4737 43.125 14.0625C43.125 16.6513 45.2237 18.75 47.8125 18.75Z" fill="#FF0068"/>
</svg>
