<svg width="60" height="60" viewBox="0 0 60 60" fill="none" xmlns="http://www.w3.org/2000/svg">
<path fill-rule="evenodd" clip-rule="evenodd" d="M6 0C2.68629 0 0 2.68629 0 6V54C0 57.3137 2.68629 60 6 60H54C57.3137 60 60 57.3137 60 54V6C60 2.68629 57.3137 0 54 0H6ZM9.375 17.6895C9.40814 16.6216 12.9539 12.5482 14.7533 11.4795C16.3455 11.3411 24.2241 11.25 30.0033 11.25C35.7826 11.25 39.6597 11.2831 45.2467 11.4762C47.0461 12.5473 50.5919 16.6208 50.625 17.6895V19.4574C50.625 21.6992 48.5332 23.6692 46.6277 23.6692C44.3462 23.6692 42.4408 21.7738 42.4408 19.527C42.4408 21.7762 40.5991 23.6692 38.3184 23.6692C36.0377 23.6692 34.259 21.7738 34.259 19.527C34.259 21.7762 32.3047 23.6692 30.0207 23.6692H29.9793C27.6953 23.6692 25.741 21.7738 25.741 19.527C25.741 21.7762 23.9664 23.6692 21.6816 23.6692C19.3967 23.6692 17.5592 21.7738 17.5592 19.527C17.5592 21.7762 15.6563 23.6692 13.3723 23.6692C11.4701 23.6692 9.375 21.6992 9.375 19.4574V17.6895ZM17.4432 22.6337C19.2617 25.8199 23.8927 25.7942 25.7153 22.613L25.7178 22.6138C26.1475 23.3649 26.7735 23.9849 27.5288 24.4073C28.284 24.8297 29.14 25.0385 30.005 25.0113C32.3834 25.0113 33.7048 23.6485 34.293 22.6138C36.1156 25.7901 40.7425 25.8249 42.565 22.6337C43.652 24.5441 46.134 25.293 47.2043 24.9252C47.5001 28.0028 48.3559 44.5494 45.7339 47.2228C39.2985 48.7239 20.9003 48.7695 14.2728 47.2228C11.6715 44.5701 12.4833 28.2514 12.8039 24.9252C13.8668 25.2905 16.3522 24.5507 17.4432 22.6337ZM26.3482 28.7062C24.8462 27.0675 23.635 27.0675 22.2706 27.0675L22.2689 27.0733C18.4755 27.0733 17.1841 31.9879 15.884 36.9355C15.6986 37.6411 15.513 38.3474 15.3199 39.0402C13.89 44.189 15.7772 44.3149 18.1317 44.3199C21.6236 44.1898 23.5572 41.654 23.5572 39.1181C27.9993 39.8463 33.192 39.6508 36.4437 39.1181C36.4437 41.654 38.3773 44.1898 41.8691 44.3199C44.2244 44.3149 46.1116 44.189 44.6817 39.0402C44.4885 38.347 44.3028 37.64 44.1172 36.9336C42.8185 31.9904 41.5267 27.0733 37.7335 27.0733C36.3699 27.0733 35.1579 27.0733 33.6534 28.7062C31.2246 28.4598 28.7771 28.4598 26.3482 28.7062ZM30.0004 31.0352C30.0023 31.0334 30.0033 31.0325 30.0033 31.0325L29.9983 31.0333C29.9983 31.0333 29.999 31.0339 30.0004 31.0352ZM30.0004 31.0352C29.8836 31.1426 26.3158 34.4296 25.6664 35.6063L28.0689 35.5094V37.607C28.0689 37.71 29.2071 37.6563 29.7421 37.631C29.8739 37.6248 29.9691 37.6203 30.0017 37.6203C30.9668 37.665 31.9328 37.7031 31.9328 37.607V35.5127L34.3353 35.6096C33.6815 34.4264 30.098 31.125 30.0004 31.0352Z" fill="#FF0068"/>
</svg>
