<svg width="60" height="60" viewBox="0 0 60 60" fill="none" xmlns="http://www.w3.org/2000/svg">
<path fill-rule="evenodd" clip-rule="evenodd" d="M6 0C2.68629 0 0 2.68629 0 6V54C0 57.3137 2.68629 60 6 60H54C57.3137 60 60 57.3137 60 54V6C60 2.68629 57.3137 0 54 0H6ZM50.625 25.704C50.2499 25.7411 49.8713 25.7579 49.4962 25.7613C47.4543 25.7639 45.4439 25.2687 43.6467 24.3206C41.8494 23.3724 40.322 22.0012 39.2024 20.3307V38.8242C39.2031 41.5287 38.3839 44.1726 36.8484 46.4215C35.313 48.6704 33.1302 50.4234 30.5763 51.4586C28.0223 52.4938 25.2119 52.7649 22.5004 52.2374C19.789 51.71 17.2984 50.4078 15.3435 48.4954C13.3887 46.5831 12.0576 44.1466 11.5184 41.4941C10.9792 38.8416 11.2563 36.0923 12.3145 33.5939C13.3728 31.0954 15.1647 28.9601 17.4636 27.458C19.7625 25.956 22.4651 25.1546 25.2297 25.1552C25.4413 25.1552 25.6475 25.1693 25.8548 25.1835C25.9341 25.1889 26.0135 25.1944 26.0935 25.199V31.9325C25.1306 31.8184 24.154 31.8981 23.2238 32.1668C22.2936 32.4355 21.4293 32.8874 20.6842 33.4948C19.9391 34.1022 19.3288 34.8522 18.8908 35.6988C18.4529 36.5455 18.1965 37.4707 18.1375 38.4178C18.0785 39.3649 18.2181 40.3138 18.5478 41.2061C18.8774 42.0985 19.3901 42.9155 20.0543 43.6069C20.7185 44.2983 21.5203 44.8495 22.4103 45.2267C23.3003 45.6039 24.2597 45.799 25.2297 45.8002C27.1437 45.834 28.995 45.1317 30.3852 43.8441C31.7753 42.5566 32.5934 40.7867 32.6635 38.9152L32.7323 7.5H39.3195C39.6202 10.2993 40.9174 12.9061 42.984 14.8644C45.0507 16.8228 47.7554 18.0081 50.625 18.213V25.704Z" fill="#FF0068"/>
</svg>
